# Blender 4.2.3 LTS
# www.blender.org
mtllib housebody.mtl
o Cube
v 1.000000 1.000000 1.000000
v 1.000000 1.000000 -1.000000
v 1.000000 -1.000000 1.000000
v 1.000000 -1.000000 -1.000000
v -1.000000 1.000000 1.000000
v -1.000000 1.000000 -1.000000
v -1.000000 -1.000000 1.000000
v -1.000000 -1.000000 -1.000000
vn -0.0000 -0.0000 1.0000
vn -0.0000 -1.0000 -0.0000
vn -1.0000 -0.0000 -0.0000
vn -0.0000 -0.0000 -1.0000
vn 1.0000 -0.0000 -0.0000
vn -0.0000 1.0000 -0.0000
vt -0.002611 -0.000472
vt 0.351746 -0.000472
vt 0.338517 0.999134
vt -0.001141 0.999134
vt 0.000197 0.185591
vt 0.295761 0.198819
vt 0.314869 0.997795
vt 0.000197 1.000000
vt 0.344839 1.004778
vt -0.003633 1.000982
vt 0.020183 0.001721
vt 0.348096 0.002957
vt -0.002874 0.001733
vt 0.341194 -0.007086
vt 0.329436 0.999134
vt -0.001404 1.003543
vt 0.161939 -0.003968
vt 0.902615 -0.007083
vt 0.891509 0.997575
vt 0.161590 0.996927
vt 0.001667 0.197087
vt 0.344265 0.197087
vt 0.339856 0.998267
vt -0.002743 1.002677
s 0
usemtl Material
f 1/1/1 5/2/1 7/3/1 3/4/1
f 4/5/2 3/6/2 7/7/2 8/8/2
f 8/9/3 7/10/3 5/11/3 6/12/3
f 6/13/4 2/14/4 4/15/4 8/16/4
f 2/17/5 1/18/5 3/19/5 4/20/5
f 6/21/6 5/22/6 1/23/6 2/24/6
